<svg viewBox="0 0 150 150" version="1.1" xmlns="http://www.w3.org/2000/svg" xmlns:xlink="http://www.w3.org/1999/xlink">
	<g>
		<path fill="#fff" d="M 48.67942,115.02724 35.3875,102.89597 36.00582,76.246371 c 0.58682,-25.29183 0.87674,-27.089227 5.69053,-35.278282 14.867,-25.291224 51.71357,-25.291224 66.58057,0 4.79845,8.16298 5.1063,10.043031 5.7039,34.834455 l 0.63168,26.205776 -5.19864,5.47711 c -2.85927,3.01241 -9.21762,8.86061 -14.129679,12.99601 l -8.931,7.51889 1.22739,-12.71339 c 3.1464,-32.58994 2.74135,-31.126208 9.50636,-34.352219 5.694599,-2.715568 6.214889,-3.644702 6.214889,-11.098908 v -8.135238 l -6.850449,1.023453 c -13.96376,2.08618 -15.92345,3.98784 -16.54397,16.054125 -0.62916,12.233856 -3.01067,16.849401 -6.98992,13.546918 -1.58308,-1.313831 -2.4978,-5.923138 -2.4978,-12.586343 0,-11.652416 -1.35193,-13.558457 -10.96071,-15.453115 -3.51657,-0.693394 -7.83235,-1.66577 -9.59063,-2.160833 -2.70751,-0.762327 -3.19687,0.369926 -3.19687,7.396612 0,7.523185 0.55353,8.57824 5.93705,11.31614 3.26538,1.660678 6.1019,3.148234 6.3034,3.305681 0.78937,0.616793 4.45109,41.623607 3.77699,42.297697 -0.39468,0.39468 -6.69896,-4.74147 -14.009491,-11.41367"></path>
	</g>
</svg>