<svg xmlns="http://www.w3.org/2000/svg" width="78.969" height="91" viewBox="0 0 78.969 91"><defs><style>.cls-1{fill:#3c3c3c;fill-rule:evenodd}</style></defs><path class="cls-1" d="M21.756 38.11a1.579 1.579 0 0 1-1.109-.45l-3.1-3.08a1.548 1.548 0 0 1 0-2.2 1.574 1.574 0 0 1 2.219 0l1.989 1.97 5.086-5.05a1.574 1.574 0 0 1 2.219 0 1.546 1.546 0 0 1 0 2.2l-6.2 6.16a1.589 1.589 0 0 1-1.104.45zm32.555-3.07H35.637a1.56 1.56 0 1 1 0-3.12h18.674a1.56 1.56 0 1 1 0 3.12zM21.756 64.79a1.579 1.579 0 0 1-1.109-.45l-3.1-3.08a1.548 1.548 0 0 1 0-2.2 1.574 1.574 0 0 1 2.219 0l1.989 1.97 5.086-5.05a1.574 1.574 0 0 1 2.219 0 1.546 1.546 0 0 1 0 2.2l-6.2 6.16a1.589 1.589 0 0 1-1.104.45zm32.555-3.07H35.637a1.56 1.56 0 1 1 0-3.12h18.674a1.56 1.56 0 1 1 0 3.12zM21.756 78.14a1.589 1.589 0 0 1-1.109-.46l-3.1-3.08a1.548 1.548 0 0 1 0-2.2 1.574 1.574 0 0 1 2.219 0l1.989 1.97 5.086-5.05a1.574 1.574 0 0 1 2.219 0 1.557 1.557 0 0 1 0 2.21l-6.2 6.15a1.6 1.6 0 0 1-1.104.46zm32.555-3.08H35.637a1.56 1.56 0 1 1 0-3.12h18.674a1.56 1.56 0 1 1 0 3.12zM21.756 51.45a1.579 1.579 0 0 1-1.109-.45l-3.1-3.08a1.56 1.56 0 0 1 0-2.21 1.593 1.593 0 0 1 2.219 0l1.989 1.98 5.086-5.05a1.574 1.574 0 0 1 2.219 0 1.545 1.545 0 0 1 0 2.2L22.86 51a1.589 1.589 0 0 1-1.104.45zm32.555-3.07H35.637a1.56 1.56 0 1 1 0-3.12h18.674a1.56 1.56 0 1 1 0 3.12zM76.888 11.4H58.422a6.132 6.132 0 0 0-6.141-5.68H46.3a5.812 5.812 0 0 0-11.623 0h-6a6.128 6.128 0 0 0-6.13 5.68H2.081a2.088 2.088 0 0 0-2.092 2.08v75.44A2.082 2.082 0 0 0 2.081 91h74.807a2.083 2.083 0 0 0 2.093-2.08V13.48a2.089 2.089 0 0 0-2.093-2.08zm-50.177.44a1.965 1.965 0 0 1 1.967-1.96h6.539a3.63 3.63 0 0 0 3.642-3.61v-.48a1.627 1.627 0 0 1 3.254 0v.48a3.627 3.627 0 0 0 3.63 3.61h6.539a1.966 1.966 0 0 1 1.977 1.96v4.26H26.712v-4.26zm48.085 75H4.173V15.56h18.353v2.62a2.082 2.082 0 0 0 2.092 2.08h31.731a2.082 2.082 0 0 0 2.092-2.08v-2.62h16.353v71.28zm-34.311-76.7a2 2 0 1 1-2.01 2 2 2 0 0 1 2.01-2z"/></svg>