<svg viewBox="0 0 150 150" version="1.1" xmlns="http://www.w3.org/2000/svg" xmlns:xlink="http://www.w3.org/1999/xlink">
	<g>
		<path fill="#fff" d="m 75.000002,21.689455 c -9.911331,0 -10.747873,0.158031 -13.044922,2.455078 -1.35,1.35 -2.455078,2.731027 -2.455078,3.070313 0,1.211081 2.883884,3.474609 4.427734,3.474609 1.323811,0 1.572266,1.575758 1.572266,10 v 8.832031 a 40.646027,39.971878 0.00405846 0 0 -4.376953,1.285157 c -0.728257,0.118793 -1.291625,0.319276 -1.509766,0.568359 A 40.646027,39.971878 0.00405846 0 0 41.033205,66.443361 c -0.413295,0.541955 -0.765571,1.106089 -1.060547,1.699219 a 40.646027,39.971878 0.00405846 0 0 -5.61914,20.189453 40.646027,39.971878 0.00405846 0 0 40.640625,39.978507 40.646027,39.971878 0.00405846 0 0 40.652337,-39.966788 40.646027,39.971878 0.00405846 0 0 -5.57617,-20.115235 c -0.23937,-0.49281 -0.51287,-0.967916 -0.83203,-1.423828 A 40.646027,39.971878 0.00405846 0 0 96.859377,54.691408 c -0.275201,-0.177286 -0.550813,-0.346421 -0.826172,-0.5 -0.01425,-0.0079 -0.02873,-0.01751 -0.04297,-0.02539 A 40.646027,39.971878 0.00405846 0 0 90.369143,51.357424 C 90.128919,51.103551 89.539566,50.897709 88.77344,50.785158 a 40.646027,39.971878 0.00405846 0 0 -4.273438,-1.263672 v -8.832031 c 0,-8.424242 0.248456,-10 1.572266,-10 1.54385,0 4.427734,-2.263528 4.427734,-3.474609 0,-0.339286 -1.105075,-1.720313 -2.455078,-3.070313 -2.29705,-2.297047 -3.133583,-2.455078 -13.044922,-2.455078 z"></path>
	</g>
</svg>