<svg viewBox="0 0 150 150" version="1.1" xmlns="http://www.w3.org/2000/svg" xmlns:xlink="http://www.w3.org/1999/xlink">
	<g>
		<path fill="#fff" d="m 65.489718,107.42015 -8.00013,-20.175073 -17.08105,-5.044193 c -9.39458,-2.77429 -17.08104,-5.622433 -17.08104,-6.329207 0,-0.706775 7.73079,-3.607538 17.17954,-6.446191 l 17.17954,-5.161175 7.95875,-20.929754 c 4.37733,-11.511387 8.56393,-20.929791 9.30356,-20.929791 0.73963,0 4.99274,9.472263 9.4513,21.049437 l 8.10646,21.049437 17.082922,5.044755 c 9.39564,2.774591 17.08293,5.621532 17.08293,6.326508 0,0.705011 -7.68647,3.551691 -17.08105,6.325981 l -17.081051,5.044193 -8.00013,20.175073 c -4.40009,11.0963 -8.67967,20.17508 -9.51026,20.17508 -0.83058,0 -5.110201,-9.07878 -9.510291,-20.17508 z"></path>
	</g>
</svg>