<svg viewBox="0 0 150 150" version="1.1" xmlns="http://www.w3.org/2000/svg" xmlns:xlink="http://www.w3.org/1999/xlink">
	<g>
		<path fill="#fff" d="M 54.311175,116.18667 C 43.746206,110.27388 34.861679,105.19568 34.567783,104.90179 34.273887,104.60789 31.624605,90.151562 28.680489,72.776615 l -5.352937,-31.590812 3.228269,-0.605627 c 5.31643,-0.997368 10.968207,-5.845793 13.972568,-11.986486 l 2.726523,-5.572811 h 31.765296 31.765302 l 2.72652,5.572811 c 3.00039,6.132566 8.65499,10.988901 13.95236,11.982695 l 3.20806,0.601835 -4.77742,28.67133 c -2.62758,15.769231 -5.03896,30.103061 -5.35861,31.85296 -0.53834,2.94709 -2.04817,3.99753 -20.482102,14.25 -10.9455,6.0876 -20.49338,11.04954 -21.21751,11.02653 -0.72413,-0.023 -9.96066,-4.87959 -20.525633,-10.79237 z"></path>
	</g>
</svg>