<svg viewBox="0 0 150 150" version="1.1" xmlns="http://www.w3.org/2000/svg" xmlns:xlink="http://www.w3.org/1999/xlink">
	<g>
		<path fill="#fff" d="M 34.390703,22.67299 V 66.301894 108.8429 a 40.61,18.432203 0 0 0 -0.006,0.0525 40.61,18.432203 0 0 0 0.006,0.0741 v 0.96095 l 0.0801,0.0605 a 40.61,18.432203 0 0 0 40.52344,17.33606 40.61,18.432203 0 0 0 40.539067,-17.79493 h 0.0625 v -0.5664 a 40.61,18.432203 0 0 0 0.008,-0.0703 40.61,18.432203 0 0 0 -0.008,-0.0994 V 85.924844 c 0.0276,-5.29387 0.0178,-11.41505 0.0178,-18.79881 V 22.67299 h -9.37322 -9.371097 v 9.371112 c 0,9.024718 -0.23154,9.373039 -6.24805,9.373039 -6.01649,0 -6.24805,-0.348472 -6.24805,-9.373039 V 22.67299 h -9.37111 -9.37305 v 9.371112 c 0,9.32228 -0.0384,9.373039 -7.28906,9.373039 -7.25072,0 -7.28906,-0.05064 -7.28906,-9.373039 V 22.67299 h -8.33008 z"></path>
	</g>
</svg>