<svg viewBox="0 0 150 150" version="1.1" xmlns="http://www.w3.org/2000/svg" xmlns:xlink="http://www.w3.org/1999/xlink">
	<g>
		<path fill="#fff" d="M 59.84123,120.39602 C 57.03667,111.03522 41.67062,93.893901 28.51781,85.453751 l -9.817,-6.29954 1.25588,-9.467244 c 0.69072,-5.206989 2.97974,-14.074717 5.08669,-19.706054 3.88076,-10.372234 17.55115,-27.980914 21.72281,-27.980914 1.25111,0 3.80116,4.297683 5.66676,9.550426 3.518701,9.907106 13.366241,24.210861 19.144261,27.807421 4.898889,3.04935 17.152699,-9.73236 23.971629,-25.004319 3.00826,-6.737456 6.47995,-12.273219 7.71487,-12.301723 4.10722,-0.09482 17.80781,17.544059 21.69337,27.929109 2.10695,5.631337 4.39586,14.498294 5.08648,19.704339 l 1.25563,9.465549 -13.58185,10.06865 C 100.74035,101.805 93.17112,110.34317 90.20027,120.25895 L 87.88101,128 H 75.00022 62.11944 Z M 59.64986,90.383121 c 7.2296,-3.73858 9.677531,-12.01865 4.64179,-15.700875 -4.66162,-3.408671 -15.62927,-6.40346 -23.500479,-6.41697 -5.03288,-0.0096 -6.26364,0.765455 -6.26364,3.939519 0,8.611806 10.00756,21.104286 16.906359,21.104286 1.40678,0 5.10396,-1.31669 8.21597,-2.92596 z m 45.76894,-0.0819 c 5.06775,-3.54959 10.05419,-12.52461 10.05419,-18.096379 0,-3.174064 -1.23076,-3.948153 -6.26365,-3.939518 -7.87121,0.01349 -18.83885,3.008299 -23.50048,6.416969 -4.89312,3.577948 -2.63322,11.874028 4.25225,15.610038 6.82062,3.70083 10.18392,3.70278 15.45769,0.01 z"></path>
	</g>
</svg>