<svg viewBox="0 0 150 150" version="1.1" xmlns="http://www.w3.org/2000/svg" xmlns:xlink="http://www.w3.org/1999/xlink">
	<g>
		<path fill="#fff" d="m 22.143771,121.68765 1.92659,-8.64633 L 37.28518,98.582015 C 55.26548,78.908439 55.595461,78.477236 53.884735,76.890553 42.486462,66.318755 32.58061,58.092155 32.291932,58.958188 c -0.200232,0.600696 -0.928625,1.864266 -1.61865,2.807931 -1.090063,1.490751 -1.642681,1.548365 -4.213936,0.439329 -1.62764,-0.702034 -3.103239,-1.366702 -3.279107,-1.47704 C 22.635394,60.386581 27.1007,52.004426 29.614221,48.650706 30.9264,46.899903 32,44.969814 32,44.361619 32,42.079662 22.516033,31.404326 20.806817,31.762357 c -0.931251,0.195069 -2.480994,-0.515849 -3.443874,-1.579819 -1.688321,-1.865574 -1.585,-2.100181 2.900215,-6.585396 4.520171,-4.520171 4.706436,-4.60065 6.626434,-2.863076 1.086542,0.983307 1.755385,2.361518 1.486319,3.062693 -0.277261,0.72253 2.399672,3.573617 6.178747,6.580718 5.491181,4.369464 6.957158,5.104362 8.30665,4.164139 3.570151,-2.48741 11.756507,-7.019527 13.779461,-7.628564 1.764799,-0.531316 2.341099,-0.06983 3.281479,2.627722 0.62738,1.799725 0.74035,3.405677 0.25104,3.568782 -0.48932,0.163105 -1.64658,0.850026 -2.57171,1.526492 -1.496927,1.094581 -0.69215,2.328683 7.31279,11.213936 4.94715,5.4912 9.48569,9.984 10.08563,9.984 0.59995,0 5.13848,-4.4928 10.08564,-9.984 8.00493,-8.885253 8.80971,-10.119355 7.31278,-11.213936 -0.92512,-0.676466 -2.08239,-1.363387 -2.5717,-1.526492 -0.48932,-0.163105 -0.37635,-1.769057 0.25104,-3.568782 1.50261,-4.310399 2.73598,-3.954082 16.563492,4.785166 1.96132,1.239589 2.70138,0.907612 8.80665,-3.950503 3.77751,-3.005849 6.45344,-5.856171 6.17619,-6.578678 -0.26907,-0.701175 0.39978,-2.079386 1.48632,-3.062693 1.92,-1.737574 2.10626,-1.657095 6.62643,2.863076 4.48522,4.485215 4.58854,4.719822 2.90022,6.585396 -0.96288,1.06397 -2.51263,1.774888 -3.44388,1.579819 C 127.48397,31.404326 118,42.079662 118,44.361619 c 0,0.608195 1.0736,2.538284 2.38578,4.289087 2.51352,3.35372 6.97883,11.735875 6.43398,12.077702 -0.17587,0.110338 -1.65147,0.775006 -3.27911,1.47704 -2.57125,1.109036 -3.12387,1.051422 -4.21393,-0.439329 -0.69003,-0.943665 -1.41354,-2.192607 -1.60782,-2.775427 -0.3219,-0.965695 -22.703272,18.132852 -22.714192,19.382548 -0.003,0.29659 6.958592,8.236798 15.469302,17.644905 l 15.47401,17.105645 1.9174,8.6051 c 2.22743,9.99649 3.05606,9.32492 -9.24779,7.49495 l -7.46406,-1.11014 -17.776792,-15.88986 c -9.77723,-8.73942 -18.04678,-15.889855 -18.37678,-15.889855 -0.32999,0 -8.59954,7.150435 -18.376778,15.889855 l -17.776791,15.88986 -7.464062,1.11014 c -12.305747,1.83025 -11.476388,2.50678 -9.238596,-7.53619 z"></path>
	</g>
</svg>